<svg width="24" height="24" viewBox="0 0 24 24" fill="none" xmlns="http://www.w3.org/2000/svg">
<path d="M21.75 9.09451L21.9993 10.063C22.4411 9.94922 22.75 9.5508 22.75 9.09451H21.75ZM21.75 14.9055H22.75C22.75 14.4492 22.4411 14.0508 21.9993 13.937L21.75 14.9055ZM2.25 14.9055L2.00074 13.937C1.55886 14.0508 1.25 14.4492 1.25 14.9055H2.25ZM2.25 9.09451H1.25C1.25 9.5508 1.55886 9.94922 2.00074 10.063L2.25 9.09451ZM5.25 3.5C3.04086 3.5 1.25 5.29086 1.25 7.5H3.25C3.25 6.39543 4.14543 5.5 5.25 5.5V3.5ZM18.75 3.5H5.25V5.5H18.75V3.5ZM22.75 7.5C22.75 5.29086 20.9591 3.5 18.75 3.5V5.5C19.8546 5.5 20.75 6.39543 20.75 7.5H22.75ZM22.75 9.09451V7.5H20.75V9.09451H22.75ZM20.5 12C20.5 11.0695 21.1364 10.285 21.9993 10.063L21.5007 8.12608C19.7757 8.57006 18.5 10.1348 18.5 12H20.5ZM21.9993 13.937C21.1364 13.715 20.5 12.9305 20.5 12H18.5C18.5 13.8652 19.7757 15.4299 21.5007 15.8739L21.9993 13.937ZM22.75 16.5V14.9055H20.75V16.5H22.75ZM18.75 20.5C20.9591 20.5 22.75 18.7091 22.75 16.5H20.75C20.75 17.6046 19.8546 18.5 18.75 18.5V20.5ZM5.25 20.5H18.75V18.5H5.25V20.5ZM1.25 16.5C1.25 18.7091 3.04086 20.5 5.25 20.5V18.5C4.14543 18.5 3.25 17.6046 3.25 16.5H1.25ZM1.25 14.9055V16.5H3.25V14.9055H1.25ZM3.5 12C3.5 12.9305 2.86357 13.715 2.00074 13.937L2.49926 15.8739C4.22427 15.4299 5.5 13.8652 5.5 12H3.5ZM2.00074 10.063C2.86357 10.285 3.5 11.0695 3.5 12H5.5C5.5 10.1348 4.22427 8.57006 2.49926 8.12608L2.00074 10.063ZM1.25 7.5V9.09451H3.25V7.5H1.25Z" fill="#9CA1C2"/>
<path d="M8 12H10" stroke="#9CA1C2" stroke-width="2" stroke-linecap="round" stroke-linejoin="round"/>
<path d="M14 12H16" stroke="#9CA1C2" stroke-width="2" stroke-linecap="round" stroke-linejoin="round"/>
</svg>
