<svg width="58" height="59" viewBox="0 0 58 59" fill="none" xmlns="http://www.w3.org/2000/svg">
<path d="M43.5 28.6891L43.8739 30.1418C44.5367 29.9712 45 29.3736 45 28.6891H43.5ZM43.5 40.3111H45C45 39.6266 44.5367 39.029 43.8739 38.8584L43.5 40.3111ZM4.5 40.3111L4.12611 38.8584C3.46329 39.029 3 39.6267 3 40.3111H4.5ZM4.5 28.6891H3C3 29.3736 3.46329 29.9712 4.12611 30.1418L4.5 28.6891ZM9.5 18.0001C5.91015 18.0001 3 20.9102 3 24.5001H6C6 22.5671 7.567 21.0001 9.5 21.0001V18.0001ZM38.5 18.0001H9.5V21.0001H38.5V18.0001ZM45 24.5001C45 20.9102 42.0899 18.0001 38.5 18.0001V21.0001C40.433 21.0001 42 22.5671 42 24.5001H45ZM45 28.6891V24.5001H42V28.6891H45ZM40.5 34.5001C40.5 32.4053 41.9327 30.6414 43.8739 30.1418L43.1261 27.2365C39.8917 28.069 37.5 31.0034 37.5 34.5001H40.5ZM43.8739 38.8584C41.9327 38.3588 40.5 36.5948 40.5 34.5001H37.5C37.5 37.9968 39.8917 40.9312 43.1261 41.7637L43.8739 38.8584ZM45 44.5001V40.3111H42V44.5001H45ZM38.5 51.0001C42.0899 51.0001 45 48.0899 45 44.5001H42C42 46.4331 40.433 48.0001 38.5 48.0001V51.0001ZM9.5 51.0001H38.5V48.0001H9.5V51.0001ZM3 44.5001C3 48.0899 5.91015 51.0001 9.5 51.0001V48.0001C7.567 48.0001 6 46.4331 6 44.5001H3ZM3 40.3111V44.5001H6V40.3111H3ZM7.5 34.5001C7.5 36.5949 6.06731 38.3588 4.12611 38.8584L4.87389 41.7638C8.10837 40.9313 10.5 37.9969 10.5 34.5001H7.5ZM4.12611 30.1418C6.06732 30.6414 7.5 32.4054 7.5 34.5001H10.5C10.5 31.0034 8.10837 28.069 4.87389 27.2365L4.12611 30.1418ZM3 24.5001V28.6891H6V24.5001H3Z" fill="#13CDFF"/>
<path fill-rule="evenodd" clip-rule="evenodd" d="M48.5 8C52.0899 8 55 10.9102 55 14.5V18.6891C55 19.3735 54.5367 19.9711 53.8739 20.1417C51.9327 20.6414 50.5 22.4053 50.5 24.5001C50.5 26.5948 51.9327 28.3587 53.8739 28.8584C54.5367 29.029 55 29.6266 55 30.311V34.5C55 38.0899 52.0899 41 48.5 41H47V38H48.5C50.433 38 52 36.433 52 34.5V31.3755C49.3517 30.2183 47.5 27.5769 47.5 24.5001C47.5 21.4232 49.3517 18.7818 52 17.6246V14.5C52 12.567 50.433 11 48.5 11H19.5C17.567 11 16 12.567 16 14.5V15.5H13V14.5C13 10.9101 15.9101 8 19.5 8L48.5 8Z" fill="#13CDFF"/>
<path d="M14 34.5H17" stroke="#13CDFF" stroke-width="3" stroke-linecap="round" stroke-linejoin="round"/>
<path d="M22.5 34.5H25.5" stroke="#13CDFF" stroke-width="3" stroke-linecap="round" stroke-linejoin="round"/>
<path d="M31 34.5H34" stroke="#13CDFF" stroke-width="3" stroke-linecap="round" stroke-linejoin="round"/>
</svg>
