<svg width="58" height="59" viewBox="0 0 58 59" fill="none" xmlns="http://www.w3.org/2000/svg">
<path d="M29 37.9583V46.4166" stroke="#13CDFF" stroke-width="3" stroke-linecap="round" stroke-linejoin="round"/>
<path d="M29.0004 29.9301C29.1158 29.9301 29.2264 29.8843 29.308 29.8027C29.3896 29.7212 29.4354 29.6105 29.4354 29.4951V29.4903C29.4356 29.3743 29.3897 29.263 29.3078 29.1808C29.2259 29.0986 29.1147 29.0524 28.9987 29.0522C28.8827 29.052 28.7713 29.0979 28.6892 29.1798C28.607 29.2617 28.5607 29.3729 28.5606 29.4889V29.4903C28.5602 29.5477 28.5712 29.6047 28.5929 29.6579C28.6146 29.7111 28.6466 29.7595 28.687 29.8003C28.7274 29.8412 28.7754 29.8736 28.8283 29.8959C28.8813 29.9182 28.9381 29.9298 28.9956 29.9301H29.0004Z" stroke="#13CDFF" stroke-width="3" stroke-linecap="round" stroke-linejoin="round"/>
<path d="M28.5625 29.4904H29.4373" stroke="#13CDFF" stroke-width="3" stroke-linecap="round" stroke-linejoin="round"/>
<path d="M29.002 29.9302V29.0481" stroke="#13CDFF" stroke-width="3" stroke-linecap="round" stroke-linejoin="round"/>
<path d="M7.25 29.5C7.24966 33.7776 8.51034 37.9604 10.8744 41.5254C13.2385 45.0904 16.6011 47.8793 20.5417 49.5435" stroke="#13CDFF" stroke-width="3" stroke-linecap="round" stroke-linejoin="round"/>
<path d="M50.75 29.5C50.75 23.7315 48.4585 18.1993 44.3796 14.1204C40.3007 10.0415 34.7685 7.75 29 7.75C23.2315 7.75 17.6993 10.0415 13.6204 14.1204C9.54151 18.1993 7.25 23.7315 7.25 29.5" stroke="#13CDFF" stroke-width="3" stroke-linecap="round" stroke-linejoin="round"/>
<path d="M37.459 49.5435C41.3996 47.8794 44.7622 45.0904 47.1263 41.5254C49.4904 37.9604 50.751 33.7776 50.7507 29.5" stroke="#13CDFF" stroke-width="3" stroke-linecap="round" stroke-linejoin="round"/>
<path d="M18.125 29.5C18.1343 31.9628 18.9872 34.3481 20.5417 36.2584" stroke="#13CDFF" stroke-width="3" stroke-linecap="round" stroke-linejoin="round"/>
<path d="M39.875 29.5C39.875 26.6158 38.7292 23.8497 36.6898 21.8102C34.6503 19.7708 31.8842 18.625 29 18.625C26.1158 18.625 23.3497 19.7708 21.3102 21.8102C19.2708 23.8497 18.125 26.6158 18.125 29.5" stroke="#13CDFF" stroke-width="3" stroke-linecap="round" stroke-linejoin="round"/>
<path d="M37.459 36.2584C39.0135 34.3481 39.8664 31.9628 39.8757 29.5" stroke="#13CDFF" stroke-width="3" stroke-linecap="round" stroke-linejoin="round"/>
</svg>
