<svg width="58" height="59" viewBox="0 0 58 59" fill="none" xmlns="http://www.w3.org/2000/svg">
<path d="M29.002 23.1563V21.0417" stroke="#13CDFF" stroke-width="3" stroke-linecap="round" stroke-linejoin="round"/>
<path d="M29.002 35.8438V37.9583" stroke="#13CDFF" stroke-width="3" stroke-linecap="round" stroke-linejoin="round"/>
<path d="M25.3341 34.3333C25.8827 35.2299 26.8179 35.851 27.9465 35.851H29.005H30.2641C31.905 35.851 33.2318 34.5218 33.2318 32.8833C33.2318 31.5203 32.3038 30.3337 30.9843 30.0002L27.0209 29.0046C25.7039 28.6735 24.7734 27.4845 24.7734 26.1215C24.7734 24.4806 26.1026 23.1538 27.7411 23.1538H29.0002H30.0587C31.1873 23.1538 32.1201 23.7701 32.6687 24.6642" stroke="#13CDFF" stroke-width="3" stroke-linecap="round" stroke-linejoin="round"/>
<path d="M47.8597 44.5147C41.8059 43.304 35.5613 43.4538 29.5728 44.9497L29 45.0947C22.6345 46.6849 15.9959 46.8444 9.56275 45.5563L9.193 45.4814C8.062 45.2567 7.25 44.2634 7.25 43.1131V16.9188C7.25 15.3939 8.64442 14.2508 10.1403 14.5481C16.1941 15.7588 22.4387 15.609 28.4272 14.1131L29.5703 13.8279C35.5588 12.332 41.8059 12.1822 47.8573 13.3929L48.8046 13.5814C49.938 13.8086 50.75 14.7994 50.75 15.9522V42.1464C50.75 43.6713 49.3556 44.8144 47.8597 44.5147V44.5147Z" stroke="#13CDFF" stroke-width="3" stroke-linecap="round" stroke-linejoin="round"/>
</svg>
