<svg width="206" height="200" viewBox="0 0 206 200" fill="none" xmlns="http://www.w3.org/2000/svg">
<path d="M36.8133 65.2861C39.687 62.8748 43.6287 62.1798 47.1538 63.4628L76.4192 74.1145C79.9442 75.3975 82.517 78.4637 83.1684 82.158L88.5765 112.828C89.2279 116.523 87.8589 120.284 84.9853 122.695L61.1279 142.714C58.2542 145.125 54.3125 145.82 50.7874 144.537L21.522 133.885C17.9969 132.602 15.4241 129.536 14.7727 125.842L9.36471 95.1716C8.71331 91.4773 10.0823 87.7161 12.9559 85.3048L36.8133 65.2861Z" fill="url(#paint0_linear_152_1045)" stroke="url(#paint1_linear_152_1045)" stroke-width="3"/>
<path d="M38.832 88.2817L50.2715 86.2646L44.2368 105.85L47.8609 105.211L53.9976 85.2826L53.4975 82.4464L38.2763 85.1303L38.832 88.2817Z" fill="url(#paint2_linear_152_1045)"/>
<path d="M43.6278 117.29C43.9056 118.865 44.8081 119.376 46.4035 119.095L47.4868 118.904C49.0822 118.623 49.7554 117.834 49.4776 116.258L49.2171 114.781C48.9427 113.225 48.0368 112.694 46.4414 112.975L45.3581 113.166C43.7627 113.448 43.093 114.256 43.3673 115.812L43.6278 117.29ZM47.2667 126.64L49.4727 126.251L55.0243 111.665L52.7986 112.058L47.2667 126.64ZM45.4329 116.931L45.1898 115.552C45.1099 115.099 45.2559 114.89 45.7286 114.807L46.6544 114.644C47.1468 114.557 47.3356 114.706 47.4155 115.16L47.6586 116.538C47.7384 116.991 47.6087 117.177 47.1163 117.263L46.1905 117.427C45.7178 117.51 45.5128 117.384 45.4329 116.931ZM53.0739 123.524C53.3483 125.08 54.2542 125.611 55.8496 125.329L56.9329 125.138C58.5283 124.857 59.198 124.049 58.9237 122.493L58.6632 121.015C58.3854 119.44 57.4794 118.909 55.884 119.19L54.8008 119.381C53.2054 119.663 52.5356 120.471 52.8134 122.047L53.0739 123.524ZM54.879 123.165L54.6324 121.767C54.5525 121.314 54.6986 121.105 55.1713 121.022L56.097 120.859C56.5894 120.772 56.7782 120.921 56.8581 121.374L57.1047 122.773C57.1846 123.226 57.0548 123.411 56.5624 123.498L55.6366 123.661C55.1639 123.744 54.9589 123.618 54.879 123.165Z" fill="url(#paint3_linear_152_1045)"/>
<path d="M160.788 74.4628C164.313 73.1798 168.255 73.8748 171.128 76.2861L194.986 96.3048C197.859 98.7161 199.228 102.477 198.577 106.172L193.169 136.842C192.518 140.536 189.945 143.602 186.42 144.885L157.154 155.537C153.629 156.82 149.688 156.125 146.814 153.714L122.956 133.695C120.083 131.284 118.714 127.523 119.365 123.828L124.773 93.158C125.425 89.4637 127.998 86.3975 131.523 85.1145L160.788 74.4628Z" fill="url(#paint4_linear_152_1045)" stroke="url(#paint5_linear_152_1045)" stroke-width="3"/>
<path d="M148.492 114.135L151.832 114.724L155.555 93.6098L152.467 93.0653L145.068 97.8044L146.753 100.409L151.448 97.3697L148.492 114.135ZM157.5 109.875C156.75 114.129 158.487 116.255 162.93 117.038L166.618 117.689C171.061 118.472 173.421 117.068 174.171 112.814L175.888 103.076C176.638 98.822 174.895 96.7275 170.452 95.944L166.765 95.2939C162.321 94.5104 159.967 95.8825 159.217 100.137L157.5 109.875ZM160.851 110.401L162.535 100.852C162.919 98.6774 163.908 98.0396 166.083 98.423L170.022 99.1176C172.197 99.5011 172.908 100.439 172.525 102.613L170.841 112.162C170.458 114.337 169.474 114.943 167.299 114.559L163.36 113.865C161.186 113.481 160.468 112.575 160.851 110.401Z" fill="url(#paint6_linear_152_1045)"/>
<path d="M150.39 125.835C150.112 127.41 150.786 128.199 152.381 128.481L153.464 128.672C155.06 128.953 155.962 128.442 156.24 126.866L156.501 125.389C156.775 123.833 156.105 123.024 154.51 122.743L153.426 122.552C151.831 122.271 150.925 122.801 150.651 124.357L150.39 125.835ZM150.612 135.865L152.818 136.254L163.023 124.447L160.797 124.055L150.612 135.865ZM152.209 126.115L152.452 124.736C152.532 124.283 152.741 124.137 153.213 124.22L154.139 124.384C154.632 124.47 154.758 124.675 154.678 125.128L154.435 126.507C154.355 126.96 154.17 127.09 153.677 127.003L152.752 126.84C152.279 126.757 152.129 126.568 152.209 126.115ZM157.134 134.924C156.86 136.48 157.53 137.288 159.125 137.57L160.209 137.761C161.804 138.042 162.71 137.511 162.984 135.955L163.245 134.478C163.522 132.902 162.853 132.094 161.257 131.812L160.174 131.621C158.579 131.34 157.673 131.871 157.395 133.447L157.134 134.924ZM158.953 135.204L159.2 133.806C159.28 133.352 159.488 133.206 159.961 133.29L160.887 133.453C161.379 133.54 161.506 133.745 161.426 134.198L161.179 135.596C161.099 136.049 160.914 136.179 160.421 136.092L159.496 135.929C159.023 135.846 158.874 135.657 158.953 135.204Z" fill="url(#paint7_linear_152_1045)"/>
<path d="M98.7211 39.7631C101.97 37.8875 105.972 37.8875 109.221 39.7631L136.192 55.3349C139.441 57.2106 141.442 60.6769 141.442 64.4282V95.5718C141.442 99.3231 139.441 102.789 136.192 104.665L109.221 120.237C105.972 122.113 101.97 122.113 98.7211 120.237L71.75 104.665C68.5013 102.789 66.5 99.3231 66.5 95.5718V64.4282C66.5 60.6769 68.5013 57.2106 71.75 55.3349L98.7211 39.7631Z" fill="url(#paint8_linear_152_1045)" stroke="url(#paint9_linear_152_1045)" stroke-width="3"/>
<path d="M95.3926 73.704V75.208C95.3926 79.528 97.4726 81.32 101.985 81.32H105.121C109.633 81.32 111.713 79.528 111.713 75.208V73.8C111.713 69.48 109.633 67.72 105.121 67.72H99.5526V62.76H110.881V59.56H96.1606V70.92H105.217C107.457 70.92 108.321 71.72 108.321 73.928V75.144C108.321 77.352 107.457 78.12 105.217 78.12H101.857C99.6486 78.12 98.7846 77.352 98.7846 75.144V73.704H95.3926Z" fill="url(#paint10_linear_152_1045)"/>
<path d="M96.4023 92.16C96.4023 93.76 97.2023 94.42 98.8223 94.42H99.9223C101.542 94.42 102.342 93.76 102.342 92.16V90.66C102.342 89.08 101.542 88.4 99.9223 88.4H98.8223C97.2023 88.4 96.4023 89.08 96.4023 90.66V92.16ZM98.3623 102H100.602L108.602 88.6H106.342L98.3623 102ZM98.2423 92.12V90.72C98.2423 90.26 98.4223 90.08 98.9023 90.08H99.8423C100.342 90.08 100.502 90.26 100.502 90.72V92.12C100.502 92.58 100.342 92.74 99.8423 92.74H98.9023C98.4223 92.74 98.2423 92.58 98.2423 92.12ZM104.622 99.94C104.622 101.52 105.422 102.2 107.042 102.2H108.142C109.762 102.2 110.562 101.52 110.562 99.94V98.44C110.562 96.84 109.762 96.16 108.142 96.16H107.042C105.422 96.16 104.622 96.84 104.622 98.44V99.94ZM106.462 99.9V98.48C106.462 98.02 106.642 97.84 107.122 97.84H108.062C108.562 97.84 108.722 98.02 108.722 98.48V99.9C108.722 100.36 108.562 100.52 108.062 100.52H107.122C106.642 100.52 106.462 100.36 106.462 99.9Z" fill="url(#paint11_linear_152_1045)"/>
<defs>
<linearGradient id="paint0_linear_152_1045" x1="41.157" y1="59.6836" x2="56.7853" y2="148.316" gradientUnits="userSpaceOnUse">
<stop stop-color="#30354B"/>
<stop offset="1" stop-color="#090C19"/>
</linearGradient>
<linearGradient id="paint1_linear_152_1045" x1="12.1354" y1="74.2085" x2="112.273" y2="122.156" gradientUnits="userSpaceOnUse">
<stop stop-color="white"/>
<stop offset="0.144514" stop-color="#5B6C7B"/>
<stop offset="0.246639" stop-color="#FCFCFC"/>
<stop offset="0.77199" stop-color="#5B6C7B"/>
<stop offset="0.90625" stop-color="white"/>
</linearGradient>
<linearGradient id="paint2_linear_152_1045" x1="35.9954" y1="72.6244" x2="59.059" y2="71.5526" gradientUnits="userSpaceOnUse">
<stop stop-color="white"/>
<stop offset="0.333333" stop-color="#5C6D7C"/>
<stop offset="0.625" stop-color="white"/>
<stop offset="1" stop-color="#5C6D7C"/>
</linearGradient>
<linearGradient id="paint3_linear_152_1045" x1="41.7014" y1="105.98" x2="62.1664" y2="106.231" gradientUnits="userSpaceOnUse">
<stop stop-color="white"/>
<stop offset="0.59375" stop-color="#5C6D7C"/>
<stop offset="0.723958" stop-color="white"/>
<stop offset="1" stop-color="#5C6D7C"/>
</linearGradient>
<linearGradient id="paint4_linear_152_1045" x1="160.414" y1="75.8628" x2="192.101" y2="119.143" gradientUnits="userSpaceOnUse">
<stop stop-color="#42271E"/>
<stop offset="1" stop-color="#160C08"/>
</linearGradient>
<linearGradient id="paint5_linear_152_1045" x1="148.356" y1="78.4638" x2="199.954" y2="109.886" gradientUnits="userSpaceOnUse">
<stop offset="0.0115679" stop-color="#DEA378"/>
<stop offset="0.276042" stop-color="#623B20"/>
<stop offset="0.463542" stop-color="#DEA378"/>
<stop offset="0.713542" stop-color="#714330"/>
<stop offset="0.90625" stop-color="#DEA378"/>
</linearGradient>
<linearGradient id="paint6_linear_152_1045" x1="153.448" y1="83.7724" x2="182.963" y2="97.7727" gradientUnits="userSpaceOnUse">
<stop stop-color="#FFC79E"/>
<stop offset="0.311695" stop-color="#9A6641"/>
<stop offset="0.692708" stop-color="#FDBE90"/>
<stop offset="1" stop-color="#784C2D"/>
</linearGradient>
<linearGradient id="paint7_linear_152_1045" x1="154.046" y1="116.909" x2="168.913" y2="123.024" gradientUnits="userSpaceOnUse">
<stop stop-color="#FFC79E"/>
<stop offset="0.311695" stop-color="#9A6641"/>
<stop offset="0.692708" stop-color="#FDBE90"/>
<stop offset="1" stop-color="#784C2D"/>
</linearGradient>
<linearGradient id="paint8_linear_152_1045" x1="103.972" y1="35" x2="103.972" y2="125" gradientUnits="userSpaceOnUse">
<stop stop-color="#413004"/>
<stop offset="1" stop-color="#100C02"/>
</linearGradient>
<linearGradient id="paint9_linear_152_1045" x1="72.8688" y1="44.2647" x2="163.159" y2="108.873" gradientUnits="userSpaceOnUse">
<stop stop-color="#FFE7AB"/>
<stop offset="0.144514" stop-color="#D29C4B"/>
<stop offset="0.286458" stop-color="#FFE7AB"/>
<stop offset="0.77199" stop-color="#D29C4B"/>
<stop offset="0.90625" stop-color="#FFE7AB"/>
</linearGradient>
<linearGradient id="paint10_linear_152_1045" x1="96.803" y1="58.4179" x2="115.966" y2="62.4124" gradientUnits="userSpaceOnUse">
<stop stop-color="#F7DA9A"/>
<stop offset="0.333333" stop-color="#C69141"/>
<stop offset="0.625" stop-color="#F7DA9A"/>
<stop offset="1" stop-color="#C69141"/>
</linearGradient>
<linearGradient id="paint11_linear_152_1045" x1="97.6261" y1="87.6757" x2="113.67" y2="92.2513" gradientUnits="userSpaceOnUse">
<stop stop-color="#F7DA9A"/>
<stop offset="0.333333" stop-color="#C69141"/>
<stop offset="0.625" stop-color="#F7DA9A"/>
<stop offset="1" stop-color="#C69141"/>
</linearGradient>
</defs>
</svg>
