<svg width="55" height="50" viewBox="0 0 55 50" fill="none" xmlns="http://www.w3.org/2000/svg">
<path d="M43.5 20.189L43.7493 21.1575C44.1911 21.0437 44.5 20.6453 44.5 20.189H43.5ZM43.5 31.811H44.5C44.5 31.3547 44.1911 30.9563 43.7493 30.8425L43.5 31.811ZM4.5 31.811L4.25074 30.8425C3.80886 30.9563 3.5 31.3547 3.5 31.811H4.5ZM4.5 20.189H3.5C3.5 20.6453 3.80886 21.0437 4.25074 21.1575L4.5 20.189ZM9.5 10C6.18629 10 3.5 12.6863 3.5 16H5.5C5.5 13.7909 7.29086 12 9.5 12V10ZM38.5 10H9.5V12H38.5V10ZM44.5 16C44.5 12.6863 41.8137 10 38.5 10V12C40.7091 12 42.5 13.7909 42.5 16H44.5ZM44.5 20.189V16H42.5V20.189H44.5ZM40 26C40 23.6716 41.5925 21.7126 43.7493 21.1575L43.2507 19.2206C40.2318 19.9976 38 22.7369 38 26H40ZM43.7493 30.8425C41.5925 30.2874 40 28.3284 40 26H38C38 29.2631 40.2318 32.0024 43.2507 32.7794L43.7493 30.8425ZM44.5 36V31.811H42.5V36H44.5ZM38.5 42C41.8137 42 44.5 39.3137 44.5 36H42.5C42.5 38.2091 40.7091 40 38.5 40V42ZM9.5 42H38.5V40H9.5V42ZM3.5 36C3.5 39.3137 6.18629 42 9.5 42V40C7.29086 40 5.5 38.2091 5.5 36H3.5ZM3.5 31.811L3.5 36H5.5V31.811H3.5ZM8 26C8 28.3284 6.40749 30.2874 4.25074 30.8425L4.74926 32.7794C7.76819 32.0024 10 29.2631 10 26H8ZM4.25074 21.1575C6.40749 21.7126 8 23.6716 8 26H10C10 22.7369 7.76819 19.9976 4.74926 19.2206L4.25074 21.1575ZM3.5 16V20.189H5.5V16H3.5Z" fill="#9CA1C2"/>
<path fill-rule="evenodd" clip-rule="evenodd" d="M48.5 0C51.8137 0 54.5 2.68629 54.5 6V10.189C54.5 10.6453 54.1911 11.0437 53.7493 11.1575C51.5925 11.7126 50 13.6716 50 16C50 18.3284 51.5925 20.2874 53.7493 20.8425C54.1911 20.9563 54.5 21.3547 54.5 21.811V26C54.5 29.3137 51.8137 32 48.5 32H47V30H48.5C50.7091 30 52.5 28.2091 52.5 26V22.5401C49.8691 21.5337 48 18.9862 48 16C48 13.0138 49.8691 10.4663 52.5 9.45994V6C52.5 3.79086 50.7091 2 48.5 2L19.5 2C17.2909 2 15.5 3.79086 15.5 6V7H13.5V6C13.5 2.68629 16.1863 0 19.5 0L48.5 0Z" fill="#9CA1C2"/>
<path d="M14 26H17" stroke="#9CA1C2" stroke-width="2" stroke-linecap="round" stroke-linejoin="round"/>
<path d="M22.5 26H25.5" stroke="#9CA1C2" stroke-width="2" stroke-linecap="round" stroke-linejoin="round"/>
<path d="M31 26H34" stroke="#9CA1C2" stroke-width="2" stroke-linecap="round" stroke-linejoin="round"/>
</svg>
