<svg width="20" height="20" viewBox="0 0 20 20" fill="none" xmlns="http://www.w3.org/2000/svg">
<path d="M16.5 11C17.0523 11 17.5 10.5523 17.5 10C17.5 9.44772 17.0523 9 16.5 9V11ZM2.5 14C2.5 14.5523 2.94772 15 3.5 15C4.05228 15 4.5 14.5523 4.5 14L2.5 14ZM6.5 11H16.5V9H6.5V11ZM2.5 13V14L4.5 14V13H2.5ZM6.5 9C4.29086 9 2.5 10.7909 2.5 13H4.5C4.5 11.8954 5.39543 11 6.5 11V9Z" fill="white"/>
<path d="M12.2071 4.29289C11.8166 3.90237 11.1834 3.90237 10.7929 4.29289C10.4024 4.68342 10.4024 5.31658 10.7929 5.70711L12.2071 4.29289ZM16.5 10L17.2071 10.7071C17.5976 10.3166 17.5976 9.68342 17.2071 9.29289L16.5 10ZM10.7929 14.2929C10.4024 14.6834 10.4024 15.3166 10.7929 15.7071C11.1834 16.0976 11.8166 16.0976 12.2071 15.7071L10.7929 14.2929ZM10.7929 5.70711L15.7929 10.7071L17.2071 9.29289L12.2071 4.29289L10.7929 5.70711ZM15.7929 9.29289L10.7929 14.2929L12.2071 15.7071L17.2071 10.7071L15.7929 9.29289Z" fill="white"/>
</svg>
