<svg width="24" height="24" viewBox="0 0 24 24" fill="none" xmlns="http://www.w3.org/2000/svg">
<path d="M12 22C6.47667 22 2 17.5233 2 12C2 6.47667 6.47667 2 12 2C17.5233 2 22 6.47667 22 12C22 17.5233 17.5233 22 12 22Z" stroke="#9CA1C2" stroke-width="2" stroke-linecap="round" stroke-linejoin="round"/>
<path d="M12 13.6042V13.2917C12 12.2705 12.6312 11.7167 13.2637 11.2917C13.8812 10.8755 14.5 10.333 14.5 9.333C14.5 7.95175 13.3813 6.833 12 6.833C10.6187 6.833 9.5 7.95175 9.5 9.333" stroke="#9CA1C2" stroke-width="2" stroke-linecap="round" stroke-linejoin="round"/>
<path d="M11.995 15.7917C11.305 15.7917 10.745 16.3517 10.75 17.0417C10.75 17.7317 11.31 18.2917 12 18.2917C12.69 18.2917 13.25 17.7317 13.25 17.0417C13.25 16.3517 12.69 15.7917 11.995 15.7917Z" fill="#9CA1C2"/>
</svg>
