<svg width="22" height="22" viewBox="0 0 22 22" fill="none" xmlns="http://www.w3.org/2000/svg">
<path fill-rule="evenodd" clip-rule="evenodd" d="M2.56278 13.5667C3.66241 17.175 7.02015 19.8 10.9917 19.8C15.857 19.8 19.8012 15.86 19.8012 11C19.8012 6.13989 15.857 2.19998 10.9917 2.19998C6.32301 2.19998 2.50289 5.82792 2.20117 10.4153C2.20239 10.4174 2.2036 10.4194 2.20481 10.4214C2.20482 10.4213 2.20483 10.4211 2.20484 10.421L2.20486 10.4206L6.93845 12.3672C7.06722 12.2826 7.20447 12.2093 7.35094 12.1497C7.68321 12.013 8.03362 11.9518 8.38282 11.9676L10.5385 8.83951C10.5378 8.82561 10.5378 8.81081 10.5378 8.796C10.5378 6.94989 12.0388 5.44807 13.8838 5.44807C15.7297 5.44807 17.2299 6.94989 17.2299 8.796C17.2299 10.642 15.7297 12.1451 13.8838 12.1451C13.8589 12.1451 13.8332 12.1444 13.8082 12.1436L10.7238 14.3455C10.7329 14.6854 10.6701 15.0261 10.5355 15.3509C10.0183 16.5935 8.58464 17.1849 7.34126 16.666C6.58131 16.3495 6.0662 15.6916 5.89818 14.9415L2.56278 13.5667ZM10.0209 15.1349C9.62062 16.095 8.51615 16.5505 7.55611 16.1509C7.11322 15.9666 6.77884 15.6289 6.58594 15.2263L7.67521 15.6773C8.38322 15.9718 9.1955 15.6365 9.48981 14.9294C9.78502 14.2217 9.45011 13.4089 8.74248 13.1143L7.61645 12.6482C8.05095 12.4836 8.54489 12.4775 9.00638 12.6694C9.47166 12.8628 9.83266 13.2268 10.024 13.6922C10.2153 14.1575 10.2145 14.6711 10.0209 15.1349ZM11.6562 8.79595C11.6562 10.0263 12.6567 11.0271 13.8855 11.0271C15.115 11.0271 16.1154 10.0263 16.1154 8.79595C16.1154 7.56659 15.115 6.56543 13.8855 6.56543C12.6567 6.56543 11.6562 7.56659 11.6562 8.79595ZM13.889 7.11641C12.965 7.11641 12.2148 7.8671 12.2148 8.79264C12.2148 9.71827 12.965 10.4683 13.889 10.4683C14.8138 10.4683 15.5639 9.71827 15.5639 8.79264C15.5639 7.8671 14.8138 7.11641 13.889 7.11641Z" fill="white"/>
</svg>
