<svg width="20" height="20" viewBox="0 0 20 20" fill="none" xmlns="http://www.w3.org/2000/svg">
<path d="M12.4987 16.1667V9.0525C12.4987 8.69834 12.3579 8.35917 12.1079 8.10917L10.2229 6.22417C9.97286 5.97417 9.6337 5.83334 9.27953 5.83334H4.66536C3.9287 5.83334 3.33203 6.43 3.33203 7.16667V16.1667C3.33203 16.9033 3.9287 17.5 4.66536 17.5H11.1654C11.902 17.5 12.4987 16.9033 12.4987 16.1667V16.1667Z" stroke="#B7BCDB" stroke-width="1.5" stroke-linecap="round" stroke-linejoin="round"/>
<path d="M12.5 14.1667H15.3333C16.07 14.1667 16.6667 13.57 16.6667 12.8333V5.71917C16.6667 5.365 16.5258 5.02583 16.2758 4.77583L14.3908 2.89083C14.1408 2.64083 13.8017 2.5 13.4475 2.5H8.83333C8.09667 2.5 7.5 3.09667 7.5 3.83333V5.83333" stroke="#B7BCDB" stroke-width="1.5" stroke-linecap="round" stroke-linejoin="round"/>
</svg>
