<svg width="24" height="24" viewBox="0 0 24 24" fill="none" xmlns="http://www.w3.org/2000/svg">
<path d="M7.5 15.9999V15.9999C7.77614 15.9999 8 16.2237 8 16.4999M7 21H17V21C19.2065 20.9935 20.9935 19.2065 21 17V7V6.99999C20.9935 4.79353 19.2065 3.00645 17 3H7V3C4.79354 3.00646 3.00646 4.79354 3 7V17L3 17C3.00646 19.2065 4.79355 20.9935 7.00001 21H7ZM17 7.5C17 7.77614 16.7761 8 16.5 8C16.2239 8 16 7.77614 16 7.5C16 7.22386 16.2239 7 16.5 7L17 7.5ZM16.5 7V7C16.7761 7 17 7.22386 17 7.5L16.5 7ZM8 7.49987C8 7.77601 7.77614 7.99987 7.5 7.99987C7.22386 7.99987 7 7.77601 7 7.49987C7 7.22373 7.22386 6.99987 7.5 6.99987L8 7.49987ZM7.5 6.99987V6.99987C7.77614 6.99987 8 7.22373 8 7.49987L7.5 6.99987ZM12.4999 12C12.4999 12.2761 12.2761 12.5 11.9999 12.5C11.7238 12.5 11.4999 12.2761 11.4999 12C11.4999 11.7239 11.7238 11.5 11.9999 11.5L12.4999 12ZM11.9999 11.5V11.5C12.2761 11.5 12.4999 11.7239 12.4999 12L11.9999 11.5ZM17 16.5C17 16.7761 16.7761 17 16.5 17C16.2239 17 16 16.7761 16 16.5C16 16.2239 16.2239 16 16.5 16L17 16.5ZM16.5 16V16C16.7761 16 17 16.2239 17 16.5L16.5 16ZM8 16.4999C8 16.776 7.77614 16.9999 7.5 16.9999C7.22386 16.9999 7 16.776 7 16.4999C7 16.2237 7.22386 15.9999 7.5 15.9999L8 16.4999Z" stroke="#9CA1C2" stroke-width="2" stroke-linecap="round" stroke-linejoin="round"/>
</svg>
